<svg width="71" height="71" viewBox="0 0 71 71" fill="none" xmlns="http://www.w3.org/2000/svg">
<path d="M25.85 49.35L31.3333 43.7688L22.8146 35.25L31.3333 26.7313L25.85 21.15L11.75 35.25L25.85 49.35ZM44.65 49.35L58.75 35.25L44.65 21.15L39.1667 26.7313L47.6854 35.25L39.1667 43.7688L44.65 49.35ZM7.83333 70.5C5.67917 70.5 3.83507 69.733 2.30104 68.199C0.767014 66.6649 0 64.8208 0 62.6667V7.83333C0 5.67917 0.767014 3.83507 2.30104 2.30104C3.83507 0.767014 5.67917 0 7.83333 0H62.6667C64.8208 0 66.6649 0.767014 68.199 2.30104C69.733 3.83507 70.5 5.67917 70.5 7.83333V62.6667C70.5 64.8208 69.733 66.6649 68.199 68.199C66.6649 69.733 64.8208 70.5 62.6667 70.5H7.83333ZM7.83333 62.6667H62.6667V7.83333H7.83333V62.6667Z" fill="#2E3A59"/>
</svg>
