<svg width="71" height="71" viewBox="0 0 71 71" fill="none" xmlns="http://www.w3.org/2000/svg">
<path d="M35.25 64.625C31.2354 64.625 27.4411 63.8539 23.8672 62.3117C20.2932 60.7695 17.1721 58.6643 14.5039 55.9961C11.8357 53.3279 9.73047 50.2068 8.18828 46.6328C6.64609 43.0589 5.875 39.2646 5.875 35.25C5.875 31.1865 6.67057 27.3677 8.26172 23.7937C9.85286 20.2198 12.007 17.1109 14.7242 14.4672C17.4414 11.8234 20.6115 9.73047 24.2344 8.18828C27.8573 6.64609 31.725 5.875 35.8375 5.875C39.7542 5.875 43.4505 6.54818 46.9266 7.89453C50.4026 9.24089 53.4503 11.1013 56.0695 13.4758C58.6888 15.8503 60.7695 18.6654 62.3117 21.9211C63.8539 25.1768 64.625 28.6896 64.625 32.4594C64.625 38.0896 62.9115 42.4102 59.4844 45.4211C56.0573 48.432 51.8958 49.9375 47 49.9375H41.5656C41.125 49.9375 40.819 50.0599 40.6477 50.3047C40.4763 50.5495 40.3906 50.8187 40.3906 51.1125C40.3906 51.7 40.7578 52.5445 41.4922 53.6461C42.2266 54.7477 42.5938 56.0083 42.5938 57.4281C42.5938 59.876 41.9206 61.6875 40.5742 62.8625C39.2279 64.0375 37.4531 64.625 35.25 64.625ZM19.0937 38.1875C20.3667 38.1875 21.4193 37.7714 22.2516 36.9391C23.0839 36.1068 23.5 35.0542 23.5 33.7812C23.5 32.5083 23.0839 31.4557 22.2516 30.6234C21.4193 29.7911 20.3667 29.375 19.0937 29.375C17.8208 29.375 16.7682 29.7911 15.9359 30.6234C15.1036 31.4557 14.6875 32.5083 14.6875 33.7812C14.6875 35.0542 15.1036 36.1068 15.9359 36.9391C16.7682 37.7714 17.8208 38.1875 19.0937 38.1875ZM27.9062 26.4375C29.1792 26.4375 30.2318 26.0214 31.0641 25.1891C31.8964 24.3568 32.3125 23.3042 32.3125 22.0312C32.3125 20.7583 31.8964 19.7057 31.0641 18.8734C30.2318 18.0411 29.1792 17.625 27.9062 17.625C26.6333 17.625 25.5807 18.0411 24.7484 18.8734C23.9161 19.7057 23.5 20.7583 23.5 22.0312C23.5 23.3042 23.9161 24.3568 24.7484 25.1891C25.5807 26.0214 26.6333 26.4375 27.9062 26.4375ZM42.5938 26.4375C43.8667 26.4375 44.9193 26.0214 45.7516 25.1891C46.5839 24.3568 47 23.3042 47 22.0312C47 20.7583 46.5839 19.7057 45.7516 18.8734C44.9193 18.0411 43.8667 17.625 42.5938 17.625C41.3208 17.625 40.2682 18.0411 39.4359 18.8734C38.6036 19.7057 38.1875 20.7583 38.1875 22.0312C38.1875 23.3042 38.6036 24.3568 39.4359 25.1891C40.2682 26.0214 41.3208 26.4375 42.5938 26.4375ZM51.4062 38.1875C52.6792 38.1875 53.7318 37.7714 54.5641 36.9391C55.3964 36.1068 55.8125 35.0542 55.8125 33.7812C55.8125 32.5083 55.3964 31.4557 54.5641 30.6234C53.7318 29.7911 52.6792 29.375 51.4062 29.375C50.1333 29.375 49.0807 29.7911 48.2484 30.6234C47.4161 31.4557 47 32.5083 47 33.7812C47 35.0542 47.4161 36.1068 48.2484 36.9391C49.0807 37.7714 50.1333 38.1875 51.4062 38.1875ZM35.25 58.75C35.6906 58.75 36.0456 58.6276 36.3148 58.3828C36.5841 58.138 36.7187 57.8198 36.7187 57.4281C36.7187 56.7427 36.3516 55.9349 35.6172 55.0047C34.8828 54.0745 34.5156 52.6792 34.5156 50.8187C34.5156 48.7625 35.2255 47.1224 36.6453 45.8984C38.0651 44.6745 39.8031 44.0625 41.8594 44.0625H47C50.2312 44.0625 52.9974 43.1201 55.2984 41.2352C57.5995 39.3503 58.75 36.425 58.75 32.4594C58.75 26.5354 56.4857 21.6029 51.957 17.6617C47.4284 13.7206 42.0552 11.75 35.8375 11.75C29.1792 11.75 23.5 14.0266 18.8 18.5797C14.1 23.1328 11.75 28.6896 11.75 35.25C11.75 41.7615 14.0388 47.306 18.6164 51.8836C23.194 56.4612 28.7385 58.75 35.25 58.75Z" fill="#2E3A59"/>
</svg>
